<svg width="10" height="10" viewBox="0 0 10 10" fill="none" xmlns="http://www.w3.org/2000/svg">
<path fill-rule="evenodd" clip-rule="evenodd" d="M3.48667 0.0362572C3.3493 0.121078 3.34989 0.118831 3.34989 0.557115C3.34989 0.953282 3.34997 0.954063 3.39874 1.00689C3.50182 1.11857 3.3833 1.11339 5.83568 1.11339H8.09803L4.05939 5.15222C0.482195 8.72958 0.0192588 9.19925 0.00782759 9.26278C-0.0178292 9.40525 0.007554 9.44909 0.269241 9.71415C0.53425 9.9826 0.594162 10.0185 0.734463 9.99325C0.802523 9.98098 1.19072 9.59884 4.84963 5.94223L8.88964 1.90477L8.88968 4.17071C8.8897 6.70176 8.87958 6.52021 9.02609 6.61806C9.09233 6.6623 9.10414 6.66336 9.46941 6.65752L9.84467 6.65152L9.90309 6.59551C9.93524 6.56469 9.97107 6.51634 9.98274 6.48807C9.99779 6.45162 10.0025 5.52473 9.99882 3.3076L9.99368 0.178569L9.95321 0.123422C9.93096 0.0930841 9.88259 0.0529009 9.84574 0.0341279C9.78278 0.00203215 9.59074 -3.85474e-05 6.66202 5.22292e-07C3.66182 3.9592e-05 3.54311 0.00140703 3.48667 0.0362572Z" fill="#12B72C"/>
</svg>