<svg width="24" height="22" viewBox="0 0 24 22" fill="none" xmlns="http://www.w3.org/2000/svg">
<path d="M23.6636 10.0366C23.4148 9.70628 23.1046 9.43341 22.787 9.16772C22.4694 8.90263 22.1367 8.65429 21.8497 8.35569C21.6346 8.13249 21.5565 7.87756 21.5896 7.57537C21.6559 6.97218 21.8522 6.39652 21.9685 5.8035C22.2161 4.54386 21.6428 3.75217 20.3341 3.54812C19.7707 3.46015 19.2011 3.4422 18.6359 3.37937C18.1401 3.32432 17.7624 3.13283 17.5654 2.67325C17.4948 2.50809 17.4123 2.34772 17.3379 2.18436C17.1234 1.71461 16.9458 1.22691 16.6426 0.798457C16.0967 0.027115 15.3683 -0.185917 14.4667 0.161756C13.9658 0.35504 13.5019 0.621329 13.0648 0.915744C12.3401 1.40344 11.6592 1.40225 10.9358 0.913948C10.5119 0.627912 10.0598 0.372992 9.57649 0.178511C9.20196 0.0277134 8.81805 -0.0494806 8.41476 0.0402798C7.797 0.177314 7.44935 0.608164 7.16799 1.10723C6.891 1.59912 6.69779 2.12751 6.46207 2.63735C6.2426 3.11188 5.87057 3.3309 5.34098 3.38236C4.76699 3.43801 4.1905 3.46315 3.61901 3.55231C2.43727 3.73662 1.8714 4.44632 2.00771 5.58209C2.07712 6.16134 2.25344 6.71906 2.37787 7.28694C2.48854 7.79259 2.38724 8.21626 1.95644 8.55077C1.79887 8.67284 1.65381 8.80928 1.49875 8.93494C0.88787 9.43162 0.26511 9.91872 0 10.6865C0 10.8959 0 11.1054 0 11.3148C0.241976 11.9994 0.763443 12.4727 1.3218 12.9197C1.53126 13.0873 1.72759 13.271 1.94018 13.4349C2.38787 13.7796 2.48979 14.2141 2.37161 14.7365C2.23718 15.3325 2.06211 15.9207 1.9877 16.5299C1.88891 17.3455 2.27845 18.0055 3.05815 18.2988C3.24635 18.3694 3.44268 18.4148 3.64277 18.4496C4.21175 18.5489 4.79075 18.5597 5.36411 18.6219C5.85994 18.6757 6.23885 18.8654 6.43518 19.3262C6.50521 19.4914 6.58774 19.6517 6.66278 19.8151C6.88787 20.3046 7.0717 20.8138 7.39871 21.2561C7.91017 21.9478 8.59046 22.1585 9.4233 21.8784C9.71843 21.7791 9.99104 21.6366 10.2599 21.4858C10.6763 21.2525 11.0765 20.9934 11.5154 20.7977C11.8393 20.6529 12.1626 20.6439 12.4827 20.7989C12.7184 20.9132 12.9516 21.0341 13.1792 21.1621C13.6013 21.3997 14.0102 21.6618 14.466 21.8395C14.8262 21.9801 15.1976 22.0477 15.5852 21.9622C16.1942 21.8275 16.5431 21.4057 16.8226 20.9156C17.1059 20.4183 17.3003 19.8821 17.5392 19.3651C17.7587 18.8906 18.1301 18.671 18.659 18.6189C19.233 18.5632 19.8095 18.5381 20.3804 18.449C21.5621 18.2652 22.1236 17.5615 21.9917 16.4198C21.9254 15.8471 21.7541 15.2966 21.6265 14.7371C21.5071 14.2123 21.6146 13.7796 22.0598 13.4355C22.2236 13.3087 22.3756 13.168 22.5363 13.0376C23.1365 12.5505 23.7386 12.0658 24 11.3148C24 11.1203 24 10.9258 24 10.7313C23.9075 10.4914 23.8231 10.2484 23.6636 10.0366ZM22.6357 11.4865C22.4437 11.705 22.2174 11.8887 21.9935 12.0754C21.6928 12.3255 21.3908 12.5726 21.1063 12.8401C20.5317 13.3817 20.3835 14.0363 20.506 14.773C20.6042 15.3618 20.798 15.9309 20.885 16.5221C20.965 17.0637 20.8262 17.2629 20.2684 17.3748C19.7163 17.4855 19.153 17.4957 18.5946 17.5472C17.6592 17.6339 16.9508 18.0211 16.5588 18.8636C16.3662 19.2777 16.1811 19.6954 15.991 20.1107C15.8972 20.316 15.7941 20.5164 15.6484 20.6936C15.4583 20.9251 15.3114 20.9676 15.0169 20.8845C14.7374 20.8055 14.4917 20.6624 14.2434 20.5236C13.847 20.3022 13.4619 20.064 13.0498 19.8672C12.3433 19.5303 11.648 19.5333 10.9433 19.8714C10.5525 20.0587 10.1867 20.2843 9.81096 20.4955C9.54273 20.6457 9.27824 20.8043 8.97562 20.8874C8.69175 20.9658 8.54481 20.9251 8.36223 20.7031C8.16715 20.4668 8.04648 20.1915 7.92268 19.918C7.75573 19.5494 7.59754 19.1778 7.41872 18.814C7.02293 18.0085 6.33702 17.6423 5.44352 17.5502C4.87015 17.4909 4.29054 17.4843 3.72343 17.3724C3.2451 17.2779 3.09316 17.1223 3.09692 16.7124C3.13068 16.2331 3.28262 15.7531 3.39391 15.2666C3.46082 14.9746 3.51209 14.682 3.53272 14.3834C3.57461 13.7766 3.33702 13.2793 2.90371 12.8503C2.52293 12.4727 2.08462 12.1579 1.68633 11.7995C1.57816 11.7026 1.47186 11.6026 1.37495 11.4955C1.03105 11.1161 1.03168 10.8947 1.36494 10.5141C1.5619 10.2897 1.79575 10.1024 2.02584 9.91154C2.31471 9.67158 2.60358 9.43222 2.8787 9.1767C3.4702 8.62677 3.62276 7.96134 3.49208 7.20675C3.39016 6.61852 3.19758 6.04944 3.11442 5.45762C3.04252 4.94359 3.18445 4.73715 3.70967 4.63003C4.26115 4.51753 4.82451 4.50497 5.38287 4.45649C6.34827 4.37272 7.06857 3.97059 7.46248 3.09752C7.6163 2.75643 7.77074 2.41534 7.92455 2.07365C8.02647 1.84806 8.12901 1.62246 8.2697 1.41601C8.5148 1.05697 8.70113 1.00251 9.11692 1.1581C9.38641 1.25923 9.63214 1.40404 9.87912 1.54526C10.2599 1.76248 10.6344 1.98808 11.0371 2.17C11.713 2.47518 12.3739 2.44945 13.0379 2.13948C13.4656 1.93961 13.8627 1.69068 14.2716 1.46029C14.506 1.32804 14.7405 1.1958 15.0044 1.1198C15.312 1.03124 15.4571 1.07253 15.654 1.31787C15.8891 1.61109 16.0173 1.95696 16.1711 2.29028C16.3093 2.58948 16.4462 2.88928 16.5869 3.18728C16.9758 4.00709 17.6805 4.36494 18.5821 4.4541C19.148 4.51035 19.7195 4.51813 20.2791 4.63003C20.8224 4.73894 20.9594 4.93761 20.885 5.46959C20.803 6.05423 20.6142 6.61673 20.511 7.19658C20.3735 7.97032 20.5317 8.6507 21.1488 9.19884C21.4233 9.44239 21.7034 9.68115 21.9835 9.91932C22.2111 10.1126 22.4462 10.2981 22.6419 10.5237C22.9664 10.8947 22.9652 11.1113 22.6357 11.4865Z" fill="#F45330"/>
<path d="M16.7288 7.09066C16.5063 6.87763 16.1449 6.87763 15.9223 7.09066L10.575 12.2082L8.07837 9.81878C7.85577 9.60575 7.49437 9.60575 7.27178 9.81878L6.46519 10.5907C6.2426 10.8038 6.2426 11.1496 6.46519 11.3627L10.1711 14.9094C10.3937 15.1224 10.7545 15.1224 10.9777 14.9094L17.5348 8.63395C17.7574 8.42092 17.7574 8.07504 17.5348 7.86201L16.7288 7.09066Z" fill="#F45330"/>
</svg>